HIERARCHY
ROOT Hips
{
	OFFSET -0.001795 -0.223333 0.028219
	CHANNELS 6 Xposition Yposition Zposition Zrotation Yrotation Xrotation 
	JOINT LeftUpLeg
	{
		OFFSET 0.069520 -0.091406 -0.006815
		CHANNELS 3 Zrotation Yrotation Xrotation
		JOINT LeftLeg
		{
			OFFSET 0.034277 -0.375199 -0.004496
			CHANNELS 3 Zrotation Yrotation Xrotation
			JOINT LeftFoot
			{
				OFFSET -0.013596 -0.397961 -0.043693
				CHANNELS 3 Zrotation Yrotation Xrotation
				JOINT LeftToe
				{
					OFFSET 0.026358 -0.055791 0.119288
					CHANNELS 3 Zrotation Yrotation Xrotation
					End Site
					{
						OFFSET 0.000000 0.000000 0.000000
					}
				}
			}
		}
	}
	JOINT RightUpLeg
	{
		OFFSET -0.067670 -0.090522 -0.004320
		CHANNELS 3 Zrotation Yrotation Xrotation
		JOINT RightLeg
		{
			OFFSET -0.038290 -0.382569 -0.008850
			CHANNELS 3 Zrotation Yrotation Xrotation
			JOINT RightFoot
			{
				OFFSET 0.015774 -0.398415 -0.042312
				CHANNELS 3 Zrotation Yrotation Xrotation
				JOINT RightToe
				{
					OFFSET -0.025372 -0.048144 0.123348
					CHANNELS 3 Zrotation Yrotation Xrotation
					End Site
					{
						OFFSET 0.000000 0.000000 0.000000
					}
				}
			}
		}
	}
	JOINT Spine
	{
		OFFSET -0.002533 0.108963 -0.026696
		CHANNELS 3 Zrotation Yrotation Xrotation
		JOINT Spine1
		{
			OFFSET 0.005487 0.135180 0.001092
			CHANNELS 3 Zrotation Yrotation Xrotation
			JOINT Spine2
			{
				OFFSET 0.001457 0.052922 0.025425
				CHANNELS 3 Zrotation Yrotation Xrotation
				JOINT Neck
				{
					OFFSET -0.002778 0.213870 -0.042857
					CHANNELS 3 Zrotation Yrotation Xrotation
					JOINT Head
					{
						OFFSET 0.005152 0.064970 0.051349
						CHANNELS 3 Zrotation Yrotation Xrotation
						End Site
						{
							OFFSET 0.000000 0.000000 0.000000
						}
					}
				}
				JOINT LeftShoulder
				{
					OFFSET 0.078845 0.121749 -0.034090
					CHANNELS 3 Zrotation Yrotation Xrotation
					JOINT LeftArm
					{
						OFFSET 0.090977 0.030469 -0.008868
						CHANNELS 3 Zrotation Yrotation Xrotation
						JOINT LeftForeArm
						{
							OFFSET 0.259612 -0.012772 -0.027456
							CHANNELS 3 Zrotation Yrotation Xrotation
							JOINT LeftHand
							{
								OFFSET 0.249234 0.008986 -0.001171
								CHANNELS 3 Zrotation Yrotation Xrotation
								End Site
								{
									OFFSET 0.000000 0.000000 0.000000
								}
							}
						}
					}
				}
				JOINT RightShoulder
				{
					OFFSET -0.081759 0.118833 -0.038615
					CHANNELS 3 Zrotation Yrotation Xrotation
					JOINT RightArm
					{
						OFFSET -0.096012 0.032551 -0.009143
						CHANNELS 3 Zrotation Yrotation Xrotation
						JOINT RightForeArm
						{
							OFFSET -0.253742 -0.013329 -0.021401
							CHANNELS 3 Zrotation Yrotation Xrotation
							JOINT RightHand
							{
								OFFSET -0.255298 0.007772 -0.005559
								CHANNELS 3 Zrotation Yrotation Xrotation
								End Site
								{
									OFFSET 0.000000 0.000000 0.000000
								}
							}
						}
					}
				}
			}
		}
	}
}
MOTION
Frames: 10
Frame Time: 0.050000
-0.010068 0.953343 -0.041292 -0.721737 -0.210215 2.384390 5.174121 -0.187226 -2.087155 2.854027 -0.153328 -2.674110 -1.689733 4.524654 20.127149 0.000000 0.000000 0.000000 -4.001855 0.296220 -2.731147 -1.963654 0.053954 -2.674633 0.783318 -6.394694 21.177821 0.000000 0.000000 0.000000 4.074361 0.110499 -2.324373 0.347568 -0.072452 -3.087979 -7.378652 9.183578 10.604217 14.049667 -13.455799 3.401890 0.000000 0.000000 0.000000 22.115662 11.039713 2.130918 -1.389162 -37.063794 -3.047689 102.322295 -1.497378 -8.035495 0.000000 0.000000 0.000000 -21.598761 -15.964499 -3.197146 19.984417 27.739567 2.141527 -112.311709 24.711056 -22.036350 0.000000 0.000000 0.000000 
-0.010339 0.953044 -0.044877 -0.982010 -1.424649 2.471147 5.430784 -0.202050 -2.718204 2.824333 -0.216110 -1.660833 -0.986656 5.283423 20.034152 0.000000 0.000000 0.000000 -3.518781 0.376923 -3.824073 -2.372354 0.140483 -1.707180 1.332516 -5.695886 20.934091 0.000000 0.000000 0.000000 3.769949 0.081155 -1.923105 1.113552 -0.418168 -3.232054 -7.637746 7.652880 11.258970 14.003450 -13.136266 2.821286 0.000000 0.000000 0.000000 20.311713 10.227503 1.369149 -2.800635 -37.533611 -2.535591 105.625153 -4.252448 -10.083168 0.000000 0.000000 0.000000 -19.452858 -15.309683 -2.949951 20.976060 29.615632 2.400061 -116.398628 23.858131 -24.912526 0.000000 0.000000 0.000000 
-0.010444 0.952694 -0.048529 -0.865665 -2.539882 2.788059 5.382989 -0.240246 -3.762678 2.592971 -0.268027 -0.430135 -0.343235 6.002411 20.054990 0.000000 0.000000 0.000000 -3.369358 0.463588 -4.922726 -2.925558 0.219058 -1.161343 1.825056 -5.072396 20.726963 0.000000 0.000000 0.000000 3.434829 0.044392 -1.447924 1.386318 -0.536554 -3.550729 -8.040009 6.392255 11.675779 13.569133 -12.531484 2.400297 0.000000 0.000000 0.000000 19.901005 8.467395 1.166824 -3.569958 -37.501801 -2.170818 107.724430 -5.357549 -10.451956 0.000000 0.000000 0.000000 -17.859190 -15.018888 -2.773261 21.243116 30.900415 2.457847 -119.251679 22.789700 -26.532578 0.000000 0.000000 0.000000 
-0.010496 0.951809 -0.051781 -0.890187 -3.386741 3.237351 5.295532 -0.265502 -4.374707 2.745461 -0.297636 -0.255564 0.169876 6.564378 20.009901 0.000000 0.000000 0.000000 -3.036653 0.577268 -6.313994 -3.511292 0.335334 -0.206765 2.134667 -4.636905 20.380841 0.000000 0.000000 0.000000 3.176279 0.039016 -1.407268 1.900459 -0.776653 -3.318362 -8.304656 4.590937 11.624286 13.287068 -12.283928 2.661156 0.000000 0.000000 0.000000 18.578092 7.515367 0.669848 -2.456579 -37.605225 -2.190557 109.885112 -6.391639 -10.554468 0.000000 0.000000 0.000000 -16.737099 -14.218846 -2.363782 20.515817 31.792186 2.236323 -121.119079 21.344643 -27.236591 0.000000 0.000000 0.000000 
-0.010764 0.950924 -0.054294 -0.994635 -4.581240 3.646880 5.252680 -0.280498 -4.877153 2.961058 -0.343556 0.037511 0.870436 7.343813 19.997028 0.000000 0.000000 0.000000 -2.757600 0.657316 -7.170367 -3.829763 0.363692 -0.144907 2.683884 -3.917946 20.170101 0.000000 0.000000 0.000000 3.072778 0.033546 -1.362497 2.323890 -0.969816 -3.312394 -8.535078 3.679652 11.672880 13.190219 -12.191263 2.823566 0.000000 0.000000 0.000000 18.540767 6.288875 0.573586 -2.258706 -37.238502 -2.048678 111.486091 -5.511770 -8.551188 0.000000 0.000000 0.000000 -16.034845 -14.221434 -2.195254 20.126556 32.322169 2.086207 -122.026845 19.845950 -26.666172 0.000000 0.000000 0.000000 
-0.011380 0.949428 -0.055960 -1.361999 -6.099800 3.768109 5.784201 -0.238913 -4.759506 2.676101 -0.320199 0.097684 1.755997 8.298899 19.767385 0.000000 0.000000 0.000000 -2.462022 0.744193 -8.056725 -3.614071 0.388198 0.592426 3.336498 -2.967463 19.671858 0.000000 0.000000 0.000000 3.191765 0.021012 -1.187666 2.570170 -1.086708 -3.356541 -8.417483 2.593621 11.829694 13.526567 -12.480228 2.953022 0.000000 0.000000 0.000000 17.793916 5.830026 0.188118 -2.053841 -37.442221 -1.904457 112.251852 -6.008441 -7.992940 0.000000 0.000000 0.000000 -15.445986 -13.842079 -1.883097 20.234854 33.217396 2.039733 -122.721268 19.132670 -27.460151 0.000000 0.000000 0.000000 
-0.012030 0.948008 -0.057105 -1.516980 -7.700312 3.909810 5.891115 -0.209077 -4.612571 2.699152 -0.331384 0.139771 2.674301 9.323792 19.667612 0.000000 0.000000 0.000000 -2.216781 0.834151 -8.925542 -3.712583 0.441793 1.286245 4.013382 -1.951048 19.150138 0.000000 0.000000 0.000000 3.248476 0.025222 -1.242791 2.813102 -1.220921 -2.818545 -8.576034 1.962861 11.875670 13.937122 -12.739090 2.769444 0.000000 0.000000 0.000000 17.631796 4.897615 0.064549 -2.408801 -36.797397 -1.640529 113.249435 -5.947634 -7.019752 0.000000 0.000000 0.000000 -14.644213 -13.769200 -1.768299 20.394475 33.112026 1.912904 -123.529621 19.124018 -29.104696 0.000000 0.000000 0.000000 
-0.012372 0.946200 -0.058166 -1.905960 -9.929529 3.980301 6.078299 -0.147006 -3.971848 2.898556 -0.346471 -0.185718 3.941785 10.766633 19.573348 0.000000 0.000000 0.000000 -2.113290 0.918087 -9.690816 -3.127139 0.409486 1.837762 5.006823 -0.494022 18.685227 0.000000 0.000000 0.000000 3.635690 0.007703 -1.015516 2.571590 -1.132565 -2.595566 -8.131058 1.567681 11.758036 14.139101 -13.082591 3.625374 0.000000 0.000000 0.000000 17.111332 4.170101 -0.141743 -1.669012 -36.776788 -1.633311 112.820785 -7.398930 -7.872802 0.000000 0.000000 0.000000 -13.798387 -13.844687 -1.682565 20.734838 33.519271 1.885113 -124.408364 21.300692 -34.617414 0.000000 0.000000 0.000000 
-0.012221 0.944942 -0.059328 -2.184449 -11.631828 3.608293 5.983432 -0.087306 -3.068773 3.370184 -0.400373 -0.368422 4.888058 11.871593 19.545034 0.000000 0.000000 0.000000 -2.056199 0.940199 -9.841353 -2.676544 0.387761 2.301203 5.787024 0.665666 18.396950 0.000000 0.000000 0.000000 3.983435 -0.021733 -0.588202 3.134543 -1.409991 -1.689545 -8.375327 0.446900 11.058878 14.060023 -13.016259 4.291986 0.000000 0.000000 0.000000 17.806318 2.903273 -0.154870 -1.406837 -36.236352 -1.443966 110.673999 -8.646112 -7.922312 0.000000 0.000000 0.000000 -13.348745 -13.971442 -1.485993 21.094070 33.429014 1.826658 -125.087712 24.248633 -41.575630 0.000000 0.000000 0.000000 
-0.011467 0.943980 -0.060472 -2.518445 -13.934277 3.522015 6.215153 -0.018634 -2.464201 3.179468 -0.393028 -0.285239 6.144862 13.359788 19.737375 0.000000 0.000000 0.000000 -2.039250 1.033579 -10.671290 -2.103263 0.388442 3.292838 6.860472 2.135263 18.338163 0.000000 0.000000 0.000000 4.698979 -0.069848 -0.027164 3.120205 -1.418192 -0.835045 -7.697454 -0.790527 10.826908 13.476113 -12.752977 6.239655 0.000000 0.000000 0.000000 17.954142 0.893063 -0.189698 -0.500781 -34.202489 -1.322785 109.602647 -10.272355 -8.279605 0.000000 0.000000 0.000000 -12.250560 -14.775900 -1.559210 21.095040 33.305764 1.641242 -127.727211 27.969290 -52.026975 0.000000 0.000000 0.000000 
